<svg width="200" height="200" viewBox="0 0 200 200" fill="none" xmlns="http://www.w3.org/2000/svg">
  <rect width="200" height="200" rx="100" fill="#213147" />
  <mask id="mask0_8720_3850" style="mask-type:alpha" maskUnits="userSpaceOnUse" x="0" y="0" width="200" height="200">
    <path
      d="M100 200C155.228 200 200 155.228 200 100C200 44.7715 155.228 0 100 0C44.7715 0 0 44.7715 0 100C0 155.228 44.7715 200 100 200Z"
      fill="#E5E8EC" />
  </mask>
  <g mask="url(#mask0_8720_3850)">
    <path
      d="M117.041 117.441L105.912 147.913C105.586 148.756 105.586 149.697 105.912 150.54L125.021 202.988L147.138 190.216L120.61 117.441C120.001 115.749 117.651 115.749 117.041 117.441Z"
      fill="#12AAFF" />
    <path
      d="M139.294 66.1687C138.685 64.477 136.335 64.477 135.726 66.1687L124.597 96.6407C124.27 97.4838 124.27 98.4249 124.597 99.268L155.912 185.147L178.029 172.375L139.294 66.1687Z"
      fill="#12AAFF" />
    <path d="M44.2666 185.244L52.0124 164.019L67.602 176.976L53.0459 190.314L44.2666 185.244Z" fill="#213147" />
    <path
      d="M92.9059 44.335H71.545C69.9512 44.335 68.4934 45.3195 67.9767 46.8208L22.1489 172.468L44.2659 185.24L94.739 46.8698C95.1633 45.6513 94.2712 44.335 92.9059 44.335Z"
      fill="white" />
    <path
      d="M130.331 44.335H108.97C107.376 44.335 105.918 45.3195 105.401 46.8208L53.0518 190.309L75.1687 203.081L132.115 46.9187C132.583 45.6513 131.647 44.335 130.331 44.335Z"
      fill="white" />
  </g>
</svg>