<svg width="200" height="200" viewBox="0 0 200 200" fill="none" xmlns="http://www.w3.org/2000/svg">
<mask id="mask0_7256_3140" style="mask-type:luminance" maskUnits="userSpaceOnUse" x="0" y="0" width="200" height="200">
<path d="M100 200C44.768 200 0 155.232 0 100C0 44.768 44.768 0 100 0C155.232 0 200 44.768 200 100C200 155.232 155.232 200 100 200Z" fill="white"/>
</mask>
<g mask="url(#mask0_7256_3140)">
<path fill-rule="evenodd" clip-rule="evenodd" d="M100 100L-41.4399 99.128L-41.3119 93.928L100 100Z" fill="#FEFEFF"/>
<path fill-rule="evenodd" clip-rule="evenodd" d="M100 100L-41.3359 94.7921L-41.1199 90.4561L100 100Z" fill="#FDFEFF"/>
<path fill-rule="evenodd" clip-rule="evenodd" d="M100 100L-41.168 91.328L-40.848 87L100 100Z" fill="#FCFDFF"/>
<path fill-rule="evenodd" clip-rule="evenodd" d="M99.9999 99.9999L-40.9121 87.8639L-40.4881 83.5439L99.9999 99.9999Z" fill="#FBFCFF"/>
<path fill-rule="evenodd" clip-rule="evenodd" d="M100 100L-40.5679 84.408L-40.0399 80.104L100 100Z" fill="#FAFCFF"/>
<path fill-rule="evenodd" clip-rule="evenodd" d="M100 100L-40.144 80.9681L-39.512 76.6721L100 100Z" fill="#F9FBFF"/>
<path fill-rule="evenodd" clip-rule="evenodd" d="M100 100L-39.6318 77.5281L-38.8958 73.2561L100 100Z" fill="#F8FAFF"/>
<path fill-rule="evenodd" clip-rule="evenodd" d="M100 100L-39.04 74.112L-38.2 69.856L100 100Z" fill="#F7FAFF"/>
<path fill-rule="evenodd" clip-rule="evenodd" d="M99.9998 100L-38.3682 70.7122L-37.4162 66.4722L99.9998 100Z" fill="#F6F9FF"/>
<path fill-rule="evenodd" clip-rule="evenodd" d="M100 100L-37.6079 67.3201L-36.5519 63.1121L100 100Z" fill="#F5F8FF"/>
<path fill-rule="evenodd" clip-rule="evenodd" d="M100 100L-36.7598 63.9521L-35.6078 59.7681L100 100Z" fill="#F4F8FF"/>
<path fill-rule="evenodd" clip-rule="evenodd" d="M100 100L-35.8398 60.6081L-34.5758 56.4561L100 100Z" fill="#F3F7FF"/>
<path fill-rule="evenodd" clip-rule="evenodd" d="M100 100L-34.832 57.288L-33.464 53.168L100 100Z" fill="#F2F6FF"/>
<path fill-rule="evenodd" clip-rule="evenodd" d="M99.9999 100L-33.7441 53.9921L-32.2801 49.9041L99.9999 100Z" fill="#F1F6FF"/>
<path fill-rule="evenodd" clip-rule="evenodd" d="M100 100L-32.5679 50.7201L-31.0079 46.6721L100 100Z" fill="#F0F5FF"/>
<path fill-rule="evenodd" clip-rule="evenodd" d="M100 100L-31.3198 47.4802L-29.6638 43.4722L100 100Z" fill="#EFF4FF"/>
<path fill-rule="evenodd" clip-rule="evenodd" d="M100 100L-29.9917 44.272L-28.2317 40.312L100 100Z" fill="#EEF3FF"/>
<path fill-rule="evenodd" clip-rule="evenodd" d="M100 100L-28.584 41.1041L-26.728 37.1841L100 100Z" fill="#EDF3FF"/>
<path fill-rule="evenodd" clip-rule="evenodd" d="M100 100L-27.104 37.9681L-25.152 34.0881L100 100Z" fill="#ECF2FF"/>
<path fill-rule="evenodd" clip-rule="evenodd" d="M100 100L-25.5439 34.864L-23.4959 31.04L100 100Z" fill="#EBF1FF"/>
<path fill-rule="evenodd" clip-rule="evenodd" d="M100 100L-23.9038 31.8082L-21.7678 28.0242L100 100Z" fill="#EAF1FF"/>
<path fill-rule="evenodd" clip-rule="evenodd" d="M100 100L-22.1919 28.784L-19.9599 25.064L100 100Z" fill="#E9F0FF"/>
<path fill-rule="evenodd" clip-rule="evenodd" d="M100 100L-20.4077 25.808L-18.0877 22.136L100 100Z" fill="#E8EFFF"/>
<path fill-rule="evenodd" clip-rule="evenodd" d="M100 100L-18.5518 22.8722L-16.1358 19.2642L100 100Z" fill="#E7EFFF"/>
<path fill-rule="evenodd" clip-rule="evenodd" d="M100 99.9999L-16.624 19.9839L-14.128 16.4399L100 99.9999Z" fill="#E6EEFF"/>
<path fill-rule="evenodd" clip-rule="evenodd" d="M100 100L-14.624 17.1521L-12.04 13.6641L100 100Z" fill="#E5EDFF"/>
<path fill-rule="evenodd" clip-rule="evenodd" d="M99.9999 100L-12.5601 14.36L-9.88806 10.936L99.9999 100Z" fill="#E4EDFF"/>
<path fill-rule="evenodd" clip-rule="evenodd" d="M100 100L-10.4238 11.624L-7.67183 8.27197L100 100Z" fill="#E3ECFF"/>
<path fill-rule="evenodd" clip-rule="evenodd" d="M100 100L-8.21582 8.94401L-5.38382 5.65601L100 100Z" fill="#E2EBFF"/>
<path fill-rule="evenodd" clip-rule="evenodd" d="M99.9998 100L-5.95215 6.31195L-3.04015 3.09595L99.9998 100Z" fill="#E1EBFF"/>
<path fill-rule="evenodd" clip-rule="evenodd" d="M100 100L-3.62402 3.7441L-0.632024 0.600098L100 100Z" fill="#E0EAFF"/>
<path fill-rule="evenodd" clip-rule="evenodd" d="M100 100L-1.23193 1.23216L1.84007 -1.83984L100 100Z" fill="#DFE9FF"/>
<path fill-rule="evenodd" clip-rule="evenodd" d="M99.9999 100L1.23193 -1.23182L4.36793 -4.21582L99.9999 100Z" fill="#DEE9FF"/>
<path fill-rule="evenodd" clip-rule="evenodd" d="M100 100L3.74414 -3.62389L6.96014 -6.53589L100 100Z" fill="#DDE8FF"/>
<path fill-rule="evenodd" clip-rule="evenodd" d="M100 100L6.31201 -5.95194L9.60001 -8.78394L100 100Z" fill="#DCE7FF"/>
<path fill-rule="evenodd" clip-rule="evenodd" d="M99.9998 100L8.94385 -8.21602L12.2958 -10.968L99.9998 100Z" fill="#DBE7FF"/>
<path fill-rule="evenodd" clip-rule="evenodd" d="M100 100L11.624 -10.4239L15.048 -13.0879L100 100Z" fill="#DAE6FF"/>
<path fill-rule="evenodd" clip-rule="evenodd" d="M99.9999 100L14.3599 -12.56L17.8479 -15.144L99.9999 100Z" fill="#D9E5FF"/>
<path fill-rule="evenodd" clip-rule="evenodd" d="M99.9999 100L17.1519 -14.6239L20.6959 -17.1199L99.9999 100Z" fill="#D8E5FF"/>
<path fill-rule="evenodd" clip-rule="evenodd" d="M99.9999 100L19.9839 -16.624L23.5919 -19.032L99.9999 100Z" fill="#D7E4FF"/>
<path fill-rule="evenodd" clip-rule="evenodd" d="M100 100L22.8721 -18.5518L26.5441 -20.8718L100 100Z" fill="#D6E3FF"/>
<path fill-rule="evenodd" clip-rule="evenodd" d="M100 100L25.8081 -20.4079L29.5281 -22.6399L100 100Z" fill="#D5E3FF"/>
<path fill-rule="evenodd" clip-rule="evenodd" d="M100 100L28.7842 -22.1919L32.5602 -24.3279L100 100Z" fill="#D4E2FF"/>
<path fill-rule="evenodd" clip-rule="evenodd" d="M100 100L31.8081 -23.9039L35.6321 -25.9519L100 100Z" fill="#D3E1FF"/>
<path fill-rule="evenodd" clip-rule="evenodd" d="M100 100L34.8643 -25.544L38.7443 -27.488L100 100Z" fill="#D2E0FF"/>
<path fill-rule="evenodd" clip-rule="evenodd" d="M100 100L37.9683 -27.1039L41.8883 -28.9519L100 100Z" fill="#D1E0FF"/>
<path fill-rule="evenodd" clip-rule="evenodd" d="M100 100L41.104 -28.584L45.072 -30.344L100 100Z" fill="#D0DFFF"/>
<path fill-rule="evenodd" clip-rule="evenodd" d="M100 100L44.272 -29.992L48.288 -31.656L100 100Z" fill="#CFDEFF"/>
<path fill-rule="evenodd" clip-rule="evenodd" d="M100 100L47.48 -31.3199L51.536 -32.8799L100 100Z" fill="#CEDEFF"/>
<path fill-rule="evenodd" clip-rule="evenodd" d="M100 100L50.7202 -32.568L54.8082 -34.032L100 100Z" fill="#CDDDFF"/>
<path fill-rule="evenodd" clip-rule="evenodd" d="M100 100L53.9922 -33.7439L58.1122 -35.0959L100 100Z" fill="#CCDCFF"/>
<path fill-rule="evenodd" clip-rule="evenodd" d="M100 100L57.2881 -34.8319L61.4401 -36.0879L100 100Z" fill="#CBDCFF"/>
<path fill-rule="evenodd" clip-rule="evenodd" d="M99.9999 100L60.6079 -35.8399L64.7919 -36.9919L99.9999 100Z" fill="#CADBFF"/>
<path fill-rule="evenodd" clip-rule="evenodd" d="M100 100L63.9521 -36.7599L68.1601 -37.8159L100 100Z" fill="#C9DAFF"/>
<path fill-rule="evenodd" clip-rule="evenodd" d="M99.9998 100L67.3198 -37.608L71.5518 -38.552L99.9998 100Z" fill="#C8DAFF"/>
<path fill-rule="evenodd" clip-rule="evenodd" d="M99.9999 100L70.7119 -38.368L74.9599 -39.208L99.9999 100Z" fill="#C7D9FF"/>
<path fill-rule="evenodd" clip-rule="evenodd" d="M100 100L74.1123 -39.0399L78.3843 -39.7839L100 100Z" fill="#C6D8FF"/>
<path fill-rule="evenodd" clip-rule="evenodd" d="M99.9998 100L77.5278 -39.632L81.8238 -40.272L99.9998 100Z" fill="#C5D8FF"/>
<path fill-rule="evenodd" clip-rule="evenodd" d="M100 100L80.9683 -40.1439L85.2723 -40.6719L100 100Z" fill="#C4D7FF"/>
<path fill-rule="evenodd" clip-rule="evenodd" d="M100 100L84.4082 -40.5679L88.7282 -40.9919L100 100Z" fill="#C3D6FF"/>
<path fill-rule="evenodd" clip-rule="evenodd" d="M100 100L87.8643 -40.9119L92.1923 -41.2319L100 100Z" fill="#C2D6FF"/>
<path fill-rule="evenodd" clip-rule="evenodd" d="M100 100L91.3281 -41.168L95.6641 -41.376L100 100Z" fill="#C1D5FF"/>
<path fill-rule="evenodd" clip-rule="evenodd" d="M100 100L94.792 -41.3359L99.128 -41.4399L100 100Z" fill="#C0D4FF"/>
<path fill-rule="evenodd" clip-rule="evenodd" d="M100 100L98.2642 -41.4238H102.6L100 100Z" fill="#BFD4FF"/>
<path fill-rule="evenodd" clip-rule="evenodd" d="M100 100L101.736 -41.4238L106.072 -41.3118L100 100Z" fill="#BED3FF"/>
<path fill-rule="evenodd" clip-rule="evenodd" d="M100 100L105.208 -41.3359L109.536 -41.1199L100 100Z" fill="#BDD2FF"/>
<path fill-rule="evenodd" clip-rule="evenodd" d="M100 100L108.672 -41.168L113 -40.848L100 100Z" fill="#BCD2FF"/>
<path fill-rule="evenodd" clip-rule="evenodd" d="M100 100L112.136 -40.9119L116.456 -40.4879L100 100Z" fill="#BBD1FF"/>
<path fill-rule="evenodd" clip-rule="evenodd" d="M100 100L115.584 -40.5679L119.896 -40.0399L100 100Z" fill="#BAD0FF"/>
<path fill-rule="evenodd" clip-rule="evenodd" d="M100 100L119.032 -40.144L123.328 -39.512L100 100Z" fill="#B9D0FF"/>
<path fill-rule="evenodd" clip-rule="evenodd" d="M100 100L122.464 -39.6318L126.744 -38.8958L100 100Z" fill="#B8CFFF"/>
<path fill-rule="evenodd" clip-rule="evenodd" d="M100 100L125.888 -39.04L130.144 -38.2L100 100Z" fill="#B7CEFF"/>
<path fill-rule="evenodd" clip-rule="evenodd" d="M100 100L129.288 -38.3679L133.528 -37.4159L100 100Z" fill="#B6CDFF"/>
<path fill-rule="evenodd" clip-rule="evenodd" d="M100 100L132.68 -37.6079L136.888 -36.5519L100 100Z" fill="#B5CDFF"/>
<path fill-rule="evenodd" clip-rule="evenodd" d="M100 100L136.048 -36.76L140.224 -35.608L100 100Z" fill="#B4CCFF"/>
<path fill-rule="evenodd" clip-rule="evenodd" d="M100 100L139.392 -35.8398L143.544 -34.5758L100 100Z" fill="#B3CBFF"/>
<path fill-rule="evenodd" clip-rule="evenodd" d="M100 100L142.712 -34.832L146.832 -33.464L100 100Z" fill="#B2CBFF"/>
<path fill-rule="evenodd" clip-rule="evenodd" d="M100 100L146.008 -33.7439L150.096 -32.2799L100 100Z" fill="#B1CAFF"/>
<path fill-rule="evenodd" clip-rule="evenodd" d="M100 100L149.28 -32.5679L153.328 -31.0079L100 100Z" fill="#B0C9FF"/>
<path fill-rule="evenodd" clip-rule="evenodd" d="M100 100L152.512 -31.3198L156.528 -29.6638L100 100Z" fill="#AFC9FF"/>
<path fill-rule="evenodd" clip-rule="evenodd" d="M100 100L155.72 -29.9919L159.688 -28.2319L100 100Z" fill="#AEC8FF"/>
<path fill-rule="evenodd" clip-rule="evenodd" d="M100 100L158.896 -28.584L162.816 -26.728L100 100Z" fill="#ADC7FF"/>
<path fill-rule="evenodd" clip-rule="evenodd" d="M100 100L162.032 -27.104L165.912 -25.152L100 100Z" fill="#ACC7FF"/>
<path fill-rule="evenodd" clip-rule="evenodd" d="M100 100L165.136 -25.5439L168.96 -23.4959L100 100Z" fill="#ABC6FF"/>
<path fill-rule="evenodd" clip-rule="evenodd" d="M100 100L168.192 -23.9041L171.976 -21.7681L100 100Z" fill="#AAC5FF"/>
<path fill-rule="evenodd" clip-rule="evenodd" d="M100 100L171.216 -22.1919L174.936 -19.9599L100 100Z" fill="#A9C5FF"/>
<path fill-rule="evenodd" clip-rule="evenodd" d="M100 100L174.192 -20.408L177.856 -18.088L100 100Z" fill="#A8C4FF"/>
<path fill-rule="evenodd" clip-rule="evenodd" d="M100 100L177.128 -18.552L180.736 -16.136L100 100Z" fill="#A7C3FF"/>
<path fill-rule="evenodd" clip-rule="evenodd" d="M100 100L180.016 -16.624L183.56 -14.128L100 100Z" fill="#A6C3FF"/>
<path fill-rule="evenodd" clip-rule="evenodd" d="M100 100L182.848 -14.624L186.336 -12.04L100 100Z" fill="#A5C2FF"/>
<path fill-rule="evenodd" clip-rule="evenodd" d="M100 99.9999L185.64 -12.5601L189.056 -9.88806L100 99.9999Z" fill="#A4C1FF"/>
<path fill-rule="evenodd" clip-rule="evenodd" d="M100 100L188.376 -10.4238L191.728 -7.67183L100 100Z" fill="#A3C1FF"/>
<path fill-rule="evenodd" clip-rule="evenodd" d="M100 100L191.056 -8.21582L194.344 -5.38382L100 100Z" fill="#A2C0FF"/>
<path fill-rule="evenodd" clip-rule="evenodd" d="M100 100L193.688 -5.9519L196.904 -3.0399L100 100Z" fill="#A1BFFF"/>
<path fill-rule="evenodd" clip-rule="evenodd" d="M100 100L196.256 -3.62402L199.4 -0.632024L100 100Z" fill="#A0BFFF"/>
<path fill-rule="evenodd" clip-rule="evenodd" d="M100 100L198.768 -1.23193L201.84 1.84007L100 100Z" fill="#9FBEFF"/>
<path fill-rule="evenodd" clip-rule="evenodd" d="M100 100L201.224 1.23218L204.216 4.36818L100 100Z" fill="#9EBDFF"/>
<path fill-rule="evenodd" clip-rule="evenodd" d="M100 100L203.624 3.74414L206.536 6.96014L100 100Z" fill="#9DBDFF"/>
<path fill-rule="evenodd" clip-rule="evenodd" d="M100 100L205.952 6.31201L208.784 9.60001L100 100Z" fill="#9CBCFF"/>
<path fill-rule="evenodd" clip-rule="evenodd" d="M100 100L208.216 8.94409L210.968 12.2961L100 100Z" fill="#9BBBFF"/>
<path fill-rule="evenodd" clip-rule="evenodd" d="M100 100L210.424 11.624L213.088 15.048L100 100Z" fill="#9ABAFF"/>
<path fill-rule="evenodd" clip-rule="evenodd" d="M100 100L212.56 14.3601L215.144 17.8481L100 100Z" fill="#99BAFF"/>
<path fill-rule="evenodd" clip-rule="evenodd" d="M100 100L214.624 17.1521L217.12 20.6961L100 100Z" fill="#98B9FF"/>
<path fill-rule="evenodd" clip-rule="evenodd" d="M100 100L216.624 19.9841L219.032 23.5921L100 100Z" fill="#97B8FF"/>
<path fill-rule="evenodd" clip-rule="evenodd" d="M100 100L218.552 22.8721L220.872 26.5441L100 100Z" fill="#96B8FF"/>
<path fill-rule="evenodd" clip-rule="evenodd" d="M100 100L220.408 25.8081L222.64 29.5281L100 100Z" fill="#95B7FF"/>
<path fill-rule="evenodd" clip-rule="evenodd" d="M100 100L222.192 28.7842L224.328 32.5602L100 100Z" fill="#94B6FF"/>
<path fill-rule="evenodd" clip-rule="evenodd" d="M100 100L223.904 31.8081L225.944 35.6321L100 100Z" fill="#93B6FF"/>
<path fill-rule="evenodd" clip-rule="evenodd" d="M100 100L225.536 34.864L227.488 38.744L100 100Z" fill="#92B5FF"/>
<path fill-rule="evenodd" clip-rule="evenodd" d="M100 100L227.104 37.968L228.952 41.888L100 100Z" fill="#91B4FF"/>
<path fill-rule="evenodd" clip-rule="evenodd" d="M100 100L228.584 41.104L230.344 45.072L100 100Z" fill="#90B4FF"/>
<path fill-rule="evenodd" clip-rule="evenodd" d="M100 100L229.992 44.272L231.648 48.288L100 100Z" fill="#8FB3FF"/>
<path fill-rule="evenodd" clip-rule="evenodd" d="M100 100L231.32 47.48L232.88 51.536L100 100Z" fill="#8EB2FF"/>
<path fill-rule="evenodd" clip-rule="evenodd" d="M100 100L232.568 50.72L234.032 54.808L100 100Z" fill="#8DB2FF"/>
<path fill-rule="evenodd" clip-rule="evenodd" d="M100 99.9999L233.736 53.9919L235.096 58.1119L100 99.9999Z" fill="#8CB1FF"/>
<path fill-rule="evenodd" clip-rule="evenodd" d="M100 100L234.824 57.2881L236.088 61.4401L100 100Z" fill="#8BB0FF"/>
<path fill-rule="evenodd" clip-rule="evenodd" d="M100 100L235.832 60.6082L236.992 64.7922L100 100Z" fill="#8AB0FF"/>
<path fill-rule="evenodd" clip-rule="evenodd" d="M100 100L236.76 63.9521L237.816 68.1601L100 100Z" fill="#89AFFF"/>
<path fill-rule="evenodd" clip-rule="evenodd" d="M100 100L237.608 67.3201L238.552 71.5521L100 100Z" fill="#88AEFF"/>
<path fill-rule="evenodd" clip-rule="evenodd" d="M100 100L238.36 70.7122L239.208 74.9602L100 100Z" fill="#87AEFF"/>
<path fill-rule="evenodd" clip-rule="evenodd" d="M100 100L239.04 74.1121L239.784 78.3841L100 100Z" fill="#86ADFF"/>
<path fill-rule="evenodd" clip-rule="evenodd" d="M100 100L239.632 77.5281L240.272 81.8241L100 100Z" fill="#85ACFF"/>
<path fill-rule="evenodd" clip-rule="evenodd" d="M100 100L240.144 80.968L240.672 85.272L100 100Z" fill="#84ACFF"/>
<path fill-rule="evenodd" clip-rule="evenodd" d="M100 100L240.568 84.408L240.992 88.728L100 100Z" fill="#83ABFF"/>
<path fill-rule="evenodd" clip-rule="evenodd" d="M100 100L240.912 87.864L241.232 92.192L100 100Z" fill="#82AAFF"/>
<path fill-rule="evenodd" clip-rule="evenodd" d="M100 100L241.168 91.3281L241.376 95.6641L100 100Z" fill="#81AAFF"/>
<path fill-rule="evenodd" clip-rule="evenodd" d="M100 100L241.336 94.792L241.44 99.128L100 100Z" fill="#80A9FF"/>
<path fill-rule="evenodd" clip-rule="evenodd" d="M100 100L241.416 98.2642V102.6L100 100Z" fill="#7FA8FF"/>
<path fill-rule="evenodd" clip-rule="evenodd" d="M100 100L241.416 101.736L241.312 106.072L100 100Z" fill="#7EA7FF"/>
<path fill-rule="evenodd" clip-rule="evenodd" d="M100 100L241.336 105.208L241.12 109.536L100 100Z" fill="#7DA7FF"/>
<path fill-rule="evenodd" clip-rule="evenodd" d="M100 100L241.168 108.672L240.848 113L100 100Z" fill="#7CA6FF"/>
<path fill-rule="evenodd" clip-rule="evenodd" d="M100 100L240.912 112.136L240.488 116.456L100 100Z" fill="#7BA5FF"/>
<path fill-rule="evenodd" clip-rule="evenodd" d="M100 100L240.568 115.584L240.04 119.896L100 100Z" fill="#7AA5FF"/>
<path fill-rule="evenodd" clip-rule="evenodd" d="M100 100L240.144 119.032L239.504 123.328L100 100Z" fill="#79A4FF"/>
<path fill-rule="evenodd" clip-rule="evenodd" d="M100 100L239.632 122.464L238.896 126.744L100 100Z" fill="#78A3FF"/>
<path fill-rule="evenodd" clip-rule="evenodd" d="M100 100L239.04 125.888L238.192 130.144L100 100Z" fill="#77A3FF"/>
<path fill-rule="evenodd" clip-rule="evenodd" d="M100 100L238.36 129.288L237.416 133.528L100 100Z" fill="#76A2FF"/>
<path fill-rule="evenodd" clip-rule="evenodd" d="M100 100L237.608 132.68L236.552 136.888L100 100Z" fill="#75A1FF"/>
<path fill-rule="evenodd" clip-rule="evenodd" d="M100 100L236.76 136.048L235.608 140.224L100 100Z" fill="#74A1FF"/>
<path fill-rule="evenodd" clip-rule="evenodd" d="M100 100L235.832 139.392L234.576 143.544L100 100Z" fill="#73A0FF"/>
<path fill-rule="evenodd" clip-rule="evenodd" d="M100 100L234.824 142.712L233.464 146.832L100 100Z" fill="#729FFF"/>
<path fill-rule="evenodd" clip-rule="evenodd" d="M100 100L233.736 146.008L232.28 150.096L100 100Z" fill="#719FFF"/>
<path fill-rule="evenodd" clip-rule="evenodd" d="M100 100L232.568 149.28L231.008 153.328L100 100Z" fill="#709EFF"/>
<path fill-rule="evenodd" clip-rule="evenodd" d="M100 100L231.32 152.512L229.656 156.528L100 100Z" fill="#6F9DFF"/>
<path fill-rule="evenodd" clip-rule="evenodd" d="M100 100L229.992 155.72L228.232 159.688L100 100Z" fill="#6E9DFF"/>
<path fill-rule="evenodd" clip-rule="evenodd" d="M100 100L228.584 158.896L226.728 162.816L100 100Z" fill="#6D9CFF"/>
<path fill-rule="evenodd" clip-rule="evenodd" d="M100 100L227.104 162.032L225.152 165.912L100 100Z" fill="#6C9BFF"/>
<path fill-rule="evenodd" clip-rule="evenodd" d="M100 100L225.536 165.136L223.496 168.96L100 100Z" fill="#6B9BFF"/>
<path fill-rule="evenodd" clip-rule="evenodd" d="M100 100L223.904 168.192L221.768 171.976L100 100Z" fill="#6A9AFF"/>
<path fill-rule="evenodd" clip-rule="evenodd" d="M100 100L222.192 171.216L219.96 174.936L100 100Z" fill="#6999FF"/>
<path fill-rule="evenodd" clip-rule="evenodd" d="M100 100L220.408 174.192L218.088 177.856L100 100Z" fill="#6899FF"/>
<path fill-rule="evenodd" clip-rule="evenodd" d="M100 100L218.552 177.128L216.136 180.736L100 100Z" fill="#6798FF"/>
<path fill-rule="evenodd" clip-rule="evenodd" d="M100 100L216.624 180.016L214.128 183.56L100 100Z" fill="#6697FF"/>
<path fill-rule="evenodd" clip-rule="evenodd" d="M100 100L214.624 182.848L212.04 186.336L100 100Z" fill="#6597FF"/>
<path fill-rule="evenodd" clip-rule="evenodd" d="M100 100L212.56 185.64L209.888 189.056L100 100Z" fill="#6496FF"/>
<path fill-rule="evenodd" clip-rule="evenodd" d="M100 100L210.424 188.376L207.672 191.728L100 100Z" fill="#6395FF"/>
<path fill-rule="evenodd" clip-rule="evenodd" d="M100 100L208.216 191.056L205.384 194.344L100 100Z" fill="#6294FF"/>
<path fill-rule="evenodd" clip-rule="evenodd" d="M100 100L205.952 193.688L203.04 196.904L100 100Z" fill="#6194FF"/>
<path fill-rule="evenodd" clip-rule="evenodd" d="M100 100L203.624 196.256L200.632 199.4L100 100Z" fill="#6093FF"/>
<path fill-rule="evenodd" clip-rule="evenodd" d="M100 100L201.224 198.768L198.16 201.84L100 100Z" fill="#5F92FF"/>
<path fill-rule="evenodd" clip-rule="evenodd" d="M100 100L198.768 201.224L195.632 204.216L100 100Z" fill="#5E92FF"/>
<path fill-rule="evenodd" clip-rule="evenodd" d="M100 100L196.256 203.624L193.04 206.536L100 100Z" fill="#5D91FF"/>
<path fill-rule="evenodd" clip-rule="evenodd" d="M100 100L193.688 205.952L190.4 208.784L100 100Z" fill="#5C90FF"/>
<path fill-rule="evenodd" clip-rule="evenodd" d="M100 100L191.056 208.216L187.704 210.968L100 100Z" fill="#5B90FF"/>
<path fill-rule="evenodd" clip-rule="evenodd" d="M100 100L188.376 210.424L184.952 213.088L100 100Z" fill="#5A8FFF"/>
<path fill-rule="evenodd" clip-rule="evenodd" d="M100 100L185.64 212.56L182.152 215.144L100 100Z" fill="#598EFF"/>
<path fill-rule="evenodd" clip-rule="evenodd" d="M100 100L182.848 214.624L179.304 217.12L100 100Z" fill="#588EFF"/>
<path fill-rule="evenodd" clip-rule="evenodd" d="M100 100L180.016 216.624L176.4 219.032L100 100Z" fill="#578DFF"/>
<path fill-rule="evenodd" clip-rule="evenodd" d="M100 100L177.128 218.552L173.456 220.872L100 100Z" fill="#568CFF"/>
<path fill-rule="evenodd" clip-rule="evenodd" d="M100 100L174.192 220.408L170.472 222.64L100 100Z" fill="#558CFF"/>
<path fill-rule="evenodd" clip-rule="evenodd" d="M100 100L171.216 222.192L167.44 224.328L100 100Z" fill="#548BFF"/>
<path fill-rule="evenodd" clip-rule="evenodd" d="M100 100L168.192 223.904L164.368 225.944L100 100Z" fill="#538AFF"/>
<path fill-rule="evenodd" clip-rule="evenodd" d="M100 100L165.136 225.536L161.256 227.488L100 100Z" fill="#528AFF"/>
<path fill-rule="evenodd" clip-rule="evenodd" d="M100 100L162.032 227.104L158.112 228.952L100 100Z" fill="#5189FF"/>
<path fill-rule="evenodd" clip-rule="evenodd" d="M100 100L158.896 228.584L154.928 230.344L100 100Z" fill="#5088FF"/>
<path fill-rule="evenodd" clip-rule="evenodd" d="M100 100L155.72 229.992L151.712 231.648L100 100Z" fill="#4F88FF"/>
<path fill-rule="evenodd" clip-rule="evenodd" d="M100 100L152.512 231.32L148.464 232.88L100 100Z" fill="#4E87FF"/>
<path fill-rule="evenodd" clip-rule="evenodd" d="M100 100L149.28 232.568L145.192 234.032L100 100Z" fill="#4D86FF"/>
<path fill-rule="evenodd" clip-rule="evenodd" d="M100 100L146.008 233.736L141.888 235.096L100 100Z" fill="#4C86FF"/>
<path fill-rule="evenodd" clip-rule="evenodd" d="M100 100L142.712 234.824L138.56 236.088L100 100Z" fill="#4B85FF"/>
<path fill-rule="evenodd" clip-rule="evenodd" d="M100 100L139.392 235.832L135.208 236.992L100 100Z" fill="#4A84FF"/>
<path fill-rule="evenodd" clip-rule="evenodd" d="M100 100L136.048 236.76L131.832 237.816L100 100Z" fill="#4984FF"/>
<path fill-rule="evenodd" clip-rule="evenodd" d="M100 100L132.68 237.608L128.448 238.552L100 100Z" fill="#4883FF"/>
<path fill-rule="evenodd" clip-rule="evenodd" d="M100 100L129.288 238.36L125.032 239.208L100 100Z" fill="#4782FF"/>
<path fill-rule="evenodd" clip-rule="evenodd" d="M100 100L125.888 239.04L121.616 239.784L100 100Z" fill="#4681FF"/>
<path fill-rule="evenodd" clip-rule="evenodd" d="M100 100L122.464 239.632L118.176 240.272L100 100Z" fill="#4581FF"/>
<path fill-rule="evenodd" clip-rule="evenodd" d="M100 100L119.032 240.144L114.728 240.672L100 100Z" fill="#4480FF"/>
<path fill-rule="evenodd" clip-rule="evenodd" d="M100 100L115.584 240.568L111.272 240.992L100 100Z" fill="#437FFF"/>
<path fill-rule="evenodd" clip-rule="evenodd" d="M100 100L112.136 240.912L107.808 241.232L100 100Z" fill="#427FFF"/>
<path fill-rule="evenodd" clip-rule="evenodd" d="M100 100L108.672 241.168L104.336 241.376L100 100Z" fill="#417EFF"/>
<path fill-rule="evenodd" clip-rule="evenodd" d="M100 100L105.208 241.336L100.864 241.44L100 100Z" fill="#407DFF"/>
<path fill-rule="evenodd" clip-rule="evenodd" d="M100 100L101.736 241.416H97.3921L100 100Z" fill="#3F7DFF"/>
<path fill-rule="evenodd" clip-rule="evenodd" d="M100 100L98.2642 241.416L93.9282 241.312L100 100Z" fill="#3E7CFF"/>
<path fill-rule="evenodd" clip-rule="evenodd" d="M100 100L94.7921 241.336L90.4561 241.12L100 100Z" fill="#3D7BFF"/>
<path fill-rule="evenodd" clip-rule="evenodd" d="M100 100L91.328 241.168L87 240.848L100 100Z" fill="#3C7BFF"/>
<path fill-rule="evenodd" clip-rule="evenodd" d="M99.9999 100L87.8639 240.912L83.5439 240.488L99.9999 100Z" fill="#3B7AFF"/>
<path fill-rule="evenodd" clip-rule="evenodd" d="M100 100L84.408 240.568L80.104 240.04L100 100Z" fill="#3A79FF"/>
<path fill-rule="evenodd" clip-rule="evenodd" d="M99.9999 100L80.9679 240.144L76.6719 239.504L99.9999 100Z" fill="#3979FF"/>
<path fill-rule="evenodd" clip-rule="evenodd" d="M99.9999 100L77.5279 239.632L73.2559 238.896L99.9999 100Z" fill="#3878FF"/>
<path fill-rule="evenodd" clip-rule="evenodd" d="M100 100L74.112 239.04L69.856 238.192L100 100Z" fill="#3777FF"/>
<path fill-rule="evenodd" clip-rule="evenodd" d="M100 100L70.7122 238.36L66.4722 237.416L100 100Z" fill="#3677FF"/>
<path fill-rule="evenodd" clip-rule="evenodd" d="M100 100L67.3203 237.608L63.1123 236.552L100 100Z" fill="#3576FF"/>
<path fill-rule="evenodd" clip-rule="evenodd" d="M100 100L63.9521 236.76L59.7681 235.608L100 100Z" fill="#3475FF"/>
<path fill-rule="evenodd" clip-rule="evenodd" d="M100 100L60.6081 235.832L56.4561 234.576L100 100Z" fill="#3375FF"/>
<path fill-rule="evenodd" clip-rule="evenodd" d="M100 100L57.288 234.824L53.168 233.464L100 100Z" fill="#3274FF"/>
<path fill-rule="evenodd" clip-rule="evenodd" d="M100 100L53.9923 233.736L49.9043 232.28L100 100Z" fill="#3173FF"/>
<path fill-rule="evenodd" clip-rule="evenodd" d="M99.9999 100L50.7199 232.568L46.6719 231.008L99.9999 100Z" fill="#3073FF"/>
<path fill-rule="evenodd" clip-rule="evenodd" d="M100 100L47.4802 231.32L43.4722 229.656L100 100Z" fill="#2F72FF"/>
<path fill-rule="evenodd" clip-rule="evenodd" d="M100 100L44.272 229.992L40.312 228.232L100 100Z" fill="#2E71FF"/>
<path fill-rule="evenodd" clip-rule="evenodd" d="M100 100L41.1041 228.584L37.1841 226.728L100 100Z" fill="#2D71FF"/>
<path fill-rule="evenodd" clip-rule="evenodd" d="M99.9999 100L37.9679 227.104L34.0879 225.152L99.9999 100Z" fill="#2C70FF"/>
<path fill-rule="evenodd" clip-rule="evenodd" d="M100 100L34.864 225.536L31.04 223.496L100 100Z" fill="#2B6FFF"/>
<path fill-rule="evenodd" clip-rule="evenodd" d="M99.9999 100L31.8079 223.904L28.0239 221.768L99.9999 100Z" fill="#2A6EFF"/>
<path fill-rule="evenodd" clip-rule="evenodd" d="M100 100L28.784 222.192L25.064 219.96L100 100Z" fill="#296EFF"/>
<path fill-rule="evenodd" clip-rule="evenodd" d="M100 100L25.8082 220.408L22.1362 218.088L100 100Z" fill="#286DFF"/>
<path fill-rule="evenodd" clip-rule="evenodd" d="M100 100L22.8722 218.552L19.2642 216.136L100 100Z" fill="#276CFF"/>
<path fill-rule="evenodd" clip-rule="evenodd" d="M99.9999 100L19.9839 216.624L16.4399 214.128L99.9999 100Z" fill="#266CFF"/>
<path fill-rule="evenodd" clip-rule="evenodd" d="M100 100L17.1521 214.624L13.6641 212.04L100 100Z" fill="#256BFF"/>
<path fill-rule="evenodd" clip-rule="evenodd" d="M100 100L14.36 212.56L10.936 209.888L100 100Z" fill="#246AFF"/>
<path fill-rule="evenodd" clip-rule="evenodd" d="M100 100L11.624 210.424L8.27197 207.672L100 100Z" fill="#236AFF"/>
<path fill-rule="evenodd" clip-rule="evenodd" d="M100 100L8.94425 208.216L5.65625 205.384L100 100Z" fill="#2269FF"/>
<path fill-rule="evenodd" clip-rule="evenodd" d="M100 100L6.31219 205.952L3.09619 203.04L100 100Z" fill="#2168FF"/>
<path fill-rule="evenodd" clip-rule="evenodd" d="M100 100L3.7441 203.624L0.600098 200.632L100 100Z" fill="#2068FF"/>
<path fill-rule="evenodd" clip-rule="evenodd" d="M100 100L1.23216 201.224L-1.83984 198.16L100 100Z" fill="#1F67FF"/>
<path fill-rule="evenodd" clip-rule="evenodd" d="M100 100L-1.23182 198.768L-4.21582 195.632L100 100Z" fill="#1E66FF"/>
<path fill-rule="evenodd" clip-rule="evenodd" d="M99.9999 100L-3.62413 196.256L-6.53613 193.04L99.9999 100Z" fill="#1D66FF"/>
<path fill-rule="evenodd" clip-rule="evenodd" d="M99.9998 100L-5.95218 193.688L-8.78418 190.4L99.9998 100Z" fill="#1C65FF"/>
<path fill-rule="evenodd" clip-rule="evenodd" d="M100 100L-8.21577 191.056L-10.9678 187.704L100 100Z" fill="#1B64FF"/>
<path fill-rule="evenodd" clip-rule="evenodd" d="M100 100L-10.4239 188.376L-13.0879 184.952L100 100Z" fill="#1A64FF"/>
<path fill-rule="evenodd" clip-rule="evenodd" d="M100 100L-12.56 185.64L-15.144 182.152L100 100Z" fill="#1963FF"/>
<path fill-rule="evenodd" clip-rule="evenodd" d="M99.9999 100L-14.6241 182.848L-17.1201 179.304L99.9999 100Z" fill="#1862FF"/>
<path fill-rule="evenodd" clip-rule="evenodd" d="M100 100L-16.6237 180.016L-19.0317 176.4L100 100Z" fill="#1762FF"/>
<path fill-rule="evenodd" clip-rule="evenodd" d="M99.9999 100L-18.5521 177.128L-20.8721 173.456L99.9999 100Z" fill="#1661FF"/>
<path fill-rule="evenodd" clip-rule="evenodd" d="M99.9999 100L-20.4081 174.192L-22.6401 170.472L99.9999 100Z" fill="#1560FF"/>
<path fill-rule="evenodd" clip-rule="evenodd" d="M99.9999 100L-22.1921 171.216L-24.3281 167.44L99.9999 100Z" fill="#1460FF"/>
<path fill-rule="evenodd" clip-rule="evenodd" d="M99.9998 100L-23.9041 168.192L-25.9521 164.368L99.9998 100Z" fill="#135FFF"/>
<path fill-rule="evenodd" clip-rule="evenodd" d="M100 100L-25.5438 165.136L-27.4878 161.256L100 100Z" fill="#125EFF"/>
<path fill-rule="evenodd" clip-rule="evenodd" d="M99.9998 100L-27.1041 162.032L-28.9521 158.112L99.9998 100Z" fill="#115EFF"/>
<path fill-rule="evenodd" clip-rule="evenodd" d="M100 100L-28.5837 158.896L-30.3438 154.928L100 100Z" fill="#105DFF"/>
<path fill-rule="evenodd" clip-rule="evenodd" d="M100 100L-29.9918 155.72L-31.6558 151.712L100 100Z" fill="#0F5CFF"/>
<path fill-rule="evenodd" clip-rule="evenodd" d="M100 100L-31.3199 152.512L-32.8799 148.464L100 100Z" fill="#0E5BFF"/>
<path fill-rule="evenodd" clip-rule="evenodd" d="M100 100L-32.5677 149.28L-34.0317 145.192L100 100Z" fill="#0D5BFF"/>
<path fill-rule="evenodd" clip-rule="evenodd" d="M100 100L-33.7437 146.008L-35.0957 141.888L100 100Z" fill="#0C5AFF"/>
<path fill-rule="evenodd" clip-rule="evenodd" d="M100 100L-34.8319 142.712L-36.0879 138.56L100 100Z" fill="#0B59FF"/>
<path fill-rule="evenodd" clip-rule="evenodd" d="M100 100L-35.8397 139.392L-36.9917 135.208L100 100Z" fill="#0A59FF"/>
<path fill-rule="evenodd" clip-rule="evenodd" d="M100 100L-36.7599 136.048L-37.8159 131.832L100 100Z" fill="#0958FF"/>
<path fill-rule="evenodd" clip-rule="evenodd" d="M100 100L-37.6078 132.68L-38.5518 128.448L100 100Z" fill="#0857FF"/>
<path fill-rule="evenodd" clip-rule="evenodd" d="M100 100L-38.368 129.288L-39.208 125.032L100 100Z" fill="#0757FF"/>
<path fill-rule="evenodd" clip-rule="evenodd" d="M99.9998 100L-39.0402 125.888L-39.7842 121.616L99.9998 100Z" fill="#0656FF"/>
<path fill-rule="evenodd" clip-rule="evenodd" d="M100 100L-39.632 122.464L-40.272 118.176L100 100Z" fill="#0555FF"/>
<path fill-rule="evenodd" clip-rule="evenodd" d="M100 100L-40.1439 119.032L-40.6719 114.728L100 100Z" fill="#0455FF"/>
<path fill-rule="evenodd" clip-rule="evenodd" d="M99.9998 100L-40.5682 115.584L-40.9922 111.272L99.9998 100Z" fill="#0354FF"/>
<path fill-rule="evenodd" clip-rule="evenodd" d="M100 100L-40.9119 112.136L-41.2319 107.808L100 100Z" fill="#0253FF"/>
<path fill-rule="evenodd" clip-rule="evenodd" d="M100 100L-41.168 108.672L-41.376 104.336L100 100Z" fill="#0153FF"/>
<path fill-rule="evenodd" clip-rule="evenodd" d="M100 100L-41.3359 105.208L-41.4399 100.864L100 100Z" fill="#0052FF"/>
<path fill-rule="evenodd" clip-rule="evenodd" d="M100 100L-41.4238 101.736V98.2642L100 100Z" fill="white"/>
</g>
</svg>
