<svg width="200" height="200" viewBox="0 0 200 200" fill="none" xmlns="http://www.w3.org/2000/svg">
<circle cx="100" cy="100" r="100" fill="#2B2E35"/>
<path d="M72.8115 88.8283L99.9992 61.6417L127.201 88.8427L143.021 73.023L99.9992 30L56.9917 73.0086L72.8115 88.8283Z" fill="#F3BA2F"/>
<path d="M61.6397 99.9965L45.8202 84.1771L30 99.9973L45.8195 115.817L61.6397 99.9965Z" fill="#F3BA2F"/>
<path d="M72.8115 111.17L99.9992 138.356L127.2 111.156L143.029 126.967L143.021 126.976L99.9992 169.998L56.9685 126.968L72.8115 111.17Z" fill="#F3BA2F"/>
<path d="M154.18 115.824L170 100.004L154.181 84.1845L138.36 100.005L154.18 115.824Z" fill="#F3BA2F"/>
<path d="M116.046 99.9907H116.052L99.9992 83.9377L83.9385 99.9984L83.9606 100.022L99.9992 116.06L116.052 100.007L116.06 99.9984L116.046 99.9907Z" fill="#F3BA2F"/>
</svg>
