<svg width="200" height="200" viewBox="0 0 200 200" fill="none" xmlns="http://www.w3.org/2000/svg">
<rect width="200" height="200" rx="100" fill="#A9ACB0"/>
<path fill-rule="evenodd" clip-rule="evenodd" d="M88.3331 144.444C88.3331 139.842 92.0641 136.111 96.6665 136.111H96.7776C101.38 136.111 105.111 139.842 105.111 144.444C105.111 149.047 101.38 152.778 96.7776 152.778H96.6665C92.0641 152.778 88.3331 149.047 88.3331 144.444Z" fill="white"/>
<path d="M88.9171 119.792V118.561C88.9487 112.847 89.4853 108.302 90.5269 104.924C91.6002 101.547 93.1153 98.8321 95.0724 96.7803C97.0294 94.697 99.4127 92.7872 102.222 91.0511C104.147 89.8516 105.868 88.5417 107.383 87.1212C108.93 85.6692 110.145 84.0593 111.029 82.2917C111.913 80.4924 112.355 78.488 112.355 76.2784C112.355 73.7847 111.771 71.6225 110.603 69.7917C109.435 67.9609 107.856 66.5404 105.868 65.5303C103.911 64.5202 101.717 64.0151 99.2864 64.0151C97.0452 64.0151 94.9146 64.5044 92.8944 65.483C90.9057 66.4299 89.2485 67.8819 87.9228 69.839C86.6286 71.7645 85.9026 74.2109 85.7447 77.178H68.8887C69.0465 71.1806 70.4985 66.1616 73.2447 62.1212C76.0225 58.0808 79.6841 55.0505 84.2296 53.0303C88.8066 51.0101 93.8571 50 99.3811 50C105.41 50 110.713 51.0574 115.29 53.1723C119.899 55.2872 123.481 58.3018 126.038 62.2159C128.627 66.0985 129.921 70.7071 129.921 76.0417C129.921 79.6402 129.337 82.8598 128.169 85.7008C127.033 88.5417 125.407 91.0669 123.292 93.2765C121.177 95.4861 118.668 97.459 115.764 99.1951C113.207 100.773 111.108 102.415 109.466 104.119C107.856 105.824 106.657 107.828 105.868 110.133C105.11 112.405 104.716 115.215 104.684 118.561V119.792H88.9171Z" fill="white"/>
</svg>
